<svg width="173" height="28" viewBox="0 0 173 28" fill="none" xmlns="http://www.w3.org/2000/svg">
<path d="M37.4347 21V6.45455H42.8892C44.0066 6.45455 44.9441 6.64867 45.7017 7.03693C46.464 7.42519 47.0393 7.9697 47.4276 8.67045C47.8205 9.36648 48.017 10.1785 48.017 11.1065C48.017 12.0393 47.8182 12.849 47.4205 13.5355C47.0275 14.2173 46.4474 14.7453 45.6804 15.1193C44.9134 15.4886 43.9711 15.6733 42.8537 15.6733H38.9688V13.4858H42.4986C43.152 13.4858 43.687 13.3958 44.1037 13.2159C44.5204 13.0312 44.8281 12.7637 45.027 12.4134C45.2306 12.0582 45.3324 11.6226 45.3324 11.1065C45.3324 10.5904 45.2306 10.1501 45.027 9.78551C44.8234 9.41619 44.5133 9.13684 44.0966 8.94744C43.6799 8.75331 43.1425 8.65625 42.4844 8.65625H40.0696V21H37.4347ZM44.9489 14.4091L48.5497 21H45.6094L42.0724 14.4091H44.9489ZM55.0021 21.2131C53.9084 21.2131 52.9638 20.9858 52.1683 20.5312C51.3776 20.072 50.7692 19.4233 50.343 18.5852C49.9169 17.7424 49.7038 16.7505 49.7038 15.6094C49.7038 14.4872 49.9169 13.5024 50.343 12.6548C50.7739 11.8026 51.3752 11.1397 52.147 10.6662C52.9188 10.188 53.8255 9.94886 54.8672 9.94886C55.5395 9.94886 56.174 10.0578 56.7706 10.2756C57.3719 10.4886 57.9022 10.8201 58.3615 11.2699C58.8255 11.7197 59.1901 12.2926 59.4553 12.9886C59.7204 13.6799 59.853 14.5038 59.853 15.4602V16.2486H50.9112V14.5156H57.3885C57.3838 14.0232 57.2772 13.5852 57.0689 13.2017C56.8606 12.8134 56.5694 12.508 56.1953 12.2855C55.826 12.063 55.3951 11.9517 54.9027 11.9517C54.3771 11.9517 53.9155 12.0795 53.5178 12.3352C53.12 12.5862 52.8099 12.9176 52.5874 13.3295C52.3696 13.7367 52.2583 14.1842 52.2536 14.6719V16.1847C52.2536 16.8191 52.3696 17.3636 52.6016 17.8182C52.8336 18.268 53.1579 18.6136 53.5746 18.8551C53.9912 19.0919 54.4789 19.2102 55.0376 19.2102C55.4117 19.2102 55.7502 19.1581 56.0533 19.054C56.3563 18.9451 56.6191 18.7865 56.8416 18.5781C57.0642 18.3698 57.2322 18.1117 57.3459 17.804L59.7464 18.0739C59.5949 18.7083 59.3061 19.2623 58.88 19.7358C58.4586 20.2045 57.9188 20.5691 57.2607 20.8295C56.6025 21.0852 55.8497 21.2131 55.0021 21.2131ZM64.5991 6.45455V21H62.0281V6.45455H64.5991ZM72.0724 21.2131C70.9787 21.2131 70.0341 20.9858 69.2386 20.5312C68.4479 20.072 67.8395 19.4233 67.4134 18.5852C66.9872 17.7424 66.7741 16.7505 66.7741 15.6094C66.7741 14.4872 66.9872 13.5024 67.4134 12.6548C67.8442 11.8026 68.4455 11.1397 69.2173 10.6662C69.9891 10.188 70.8958 9.94886 71.9375 9.94886C72.6098 9.94886 73.2443 10.0578 73.8409 10.2756C74.4422 10.4886 74.9725 10.8201 75.4318 11.2699C75.8958 11.7197 76.2604 12.2926 76.5256 12.9886C76.7907 13.6799 76.9233 14.5038 76.9233 15.4602V16.2486H67.9815V14.5156H74.4588C74.4541 14.0232 74.3475 13.5852 74.1392 13.2017C73.9309 12.8134 73.6397 12.508 73.2656 12.2855C72.8963 12.063 72.4654 11.9517 71.973 11.9517C71.4474 11.9517 70.9858 12.0795 70.5881 12.3352C70.1903 12.5862 69.8802 12.9176 69.6577 13.3295C69.4399 13.7367 69.3286 14.1842 69.3239 14.6719V16.1847C69.3239 16.8191 69.4399 17.3636 69.6719 17.8182C69.9039 18.268 70.2282 18.6136 70.6449 18.8551C71.0616 19.0919 71.5492 19.2102 72.108 19.2102C72.482 19.2102 72.8205 19.1581 73.1236 19.054C73.4266 18.9451 73.6894 18.7865 73.9119 18.5781C74.1345 18.3698 74.3026 18.1117 74.4162 17.804L76.8168 18.0739C76.6652 18.7083 76.3764 19.2623 75.9503 19.7358C75.5289 20.2045 74.9891 20.5691 74.331 20.8295C73.6728 21.0852 72.92 21.2131 72.0724 21.2131ZM82.2376 21.2202C81.5463 21.2202 80.9237 21.0971 80.3697 20.8509C79.8204 20.5999 79.3848 20.2306 79.0629 19.7429C78.7456 19.2552 78.587 18.6539 78.587 17.9389C78.587 17.3234 78.7006 16.8144 78.9279 16.4119C79.1552 16.0095 79.4653 15.6875 79.8583 15.446C80.2513 15.2045 80.694 15.0223 81.1864 14.8991C81.6836 14.7713 82.1973 14.679 82.7276 14.6222C83.3668 14.5559 83.8853 14.4967 84.283 14.4446C84.6808 14.3878 84.9696 14.3026 85.1495 14.1889C85.3342 14.0705 85.4265 13.8883 85.4265 13.642V13.5994C85.4265 13.0644 85.2679 12.6501 84.9506 12.3565C84.6334 12.063 84.1765 11.9162 83.5799 11.9162C82.9502 11.9162 82.4506 12.0535 82.0813 12.3281C81.7167 12.6027 81.4705 12.9271 81.3427 13.3011L78.9421 12.9602C79.1315 12.2973 79.444 11.7434 79.8796 11.2983C80.3152 10.8485 80.8479 10.5123 81.4776 10.2898C82.1074 10.0625 82.8034 9.94886 83.5657 9.94886C84.0913 9.94886 84.6145 10.0104 85.1353 10.1335C85.6561 10.2566 86.132 10.4602 86.5629 10.7443C86.9937 11.0237 87.3394 11.4048 87.5998 11.8878C87.8649 12.3707 87.9975 12.9744 87.9975 13.6989V21H85.5259V19.5014H85.4407C85.2844 19.8045 85.0643 20.0885 84.7802 20.3537C84.5008 20.6141 84.1481 20.8248 83.7219 20.9858C83.3005 21.142 82.8058 21.2202 82.2376 21.2202ZM82.9052 19.331C83.4213 19.331 83.8687 19.2292 84.2475 19.0256C84.6263 18.8172 84.9175 18.5426 85.1211 18.2017C85.3294 17.8608 85.4336 17.4891 85.4336 17.0866V15.8011C85.3531 15.8674 85.2158 15.929 85.0217 15.9858C84.8323 16.0426 84.6192 16.0923 84.3825 16.1349C84.1457 16.1776 83.9113 16.2154 83.6793 16.2486C83.4473 16.2817 83.2461 16.3101 83.0756 16.3338C82.6921 16.3859 82.3488 16.4711 82.0458 16.5895C81.7428 16.7079 81.5037 16.8736 81.3285 17.0866C81.1533 17.295 81.0657 17.5649 81.0657 17.8963C81.0657 18.3698 81.2385 18.7273 81.5842 18.9688C81.9298 19.2102 82.3701 19.331 82.9052 19.331ZM90.4407 21V19.3665L96.0657 12.3139V12.2216H90.6254V10.0909H99.212V11.8452L93.8569 18.777V18.8693H99.3967V21H90.4407ZM101.813 21V10.0909H104.384V21H101.813ZM103.106 8.54261C102.699 8.54261 102.348 8.40767 102.055 8.13778C101.761 7.86316 101.614 7.53409 101.614 7.15057C101.614 6.76231 101.761 6.43324 102.055 6.16335C102.348 5.88873 102.699 5.75142 103.106 5.75142C103.518 5.75142 103.868 5.88873 104.157 6.16335C104.451 6.43324 104.597 6.76231 104.597 7.15057C104.597 7.53409 104.451 7.86316 104.157 8.13778C103.868 8.40767 103.518 8.54261 103.106 8.54261ZM111.787 21.2131C110.721 21.2131 109.798 20.9787 109.017 20.5099C108.235 20.0412 107.629 19.3854 107.199 18.5426C106.772 17.6998 106.559 16.715 106.559 15.5881C106.559 14.4612 106.772 13.474 107.199 12.6264C107.629 11.7789 108.235 11.1207 109.017 10.652C109.798 10.1832 110.721 9.94886 111.787 9.94886C112.852 9.94886 113.775 10.1832 114.556 10.652C115.338 11.1207 115.941 11.7789 116.368 12.6264C116.798 13.474 117.014 14.4612 117.014 15.5881C117.014 16.715 116.798 17.6998 116.368 18.5426C115.941 19.3854 115.338 20.0412 114.556 20.5099C113.775 20.9787 112.852 21.2131 111.787 21.2131ZM111.801 19.1534C112.378 19.1534 112.861 18.9948 113.25 18.6776C113.638 18.3556 113.927 17.9247 114.116 17.3849C114.31 16.8452 114.407 16.2438 114.407 15.581C114.407 14.9134 114.31 14.3097 114.116 13.7699C113.927 13.2254 113.638 12.7921 113.25 12.4702C112.861 12.1482 112.378 11.9872 111.801 11.9872C111.209 11.9872 110.717 12.1482 110.324 12.4702C109.935 12.7921 109.644 13.2254 109.45 13.7699C109.261 14.3097 109.166 14.9134 109.166 15.581C109.166 16.2438 109.261 16.8452 109.45 17.3849C109.644 17.9247 109.935 18.3556 110.324 18.6776C110.717 18.9948 111.209 19.1534 111.801 19.1534ZM129.2 21H124.271V6.45455H129.299C130.743 6.45455 131.984 6.74574 133.021 7.32812C134.062 7.90578 134.862 8.73674 135.421 9.82102C135.98 10.9053 136.259 12.2027 136.259 13.7131C136.259 15.2282 135.978 16.5303 135.414 17.6193C134.855 18.7083 134.048 19.544 132.992 20.1264C131.941 20.7088 130.677 21 129.2 21ZM126.906 18.7202H129.072C130.085 18.7202 130.93 18.5355 131.607 18.1662C132.284 17.7921 132.793 17.2358 133.134 16.4972C133.475 15.7538 133.646 14.8258 133.646 13.7131C133.646 12.6004 133.475 11.6771 133.134 10.9432C132.793 10.2045 132.289 9.65294 131.621 9.28835C130.959 8.91903 130.135 8.73438 129.15 8.73438H126.906V18.7202ZM143.408 21.2131C142.342 21.2131 141.419 20.9787 140.638 20.5099C139.857 20.0412 139.25 19.3854 138.82 18.5426C138.393 17.6998 138.18 16.715 138.18 15.5881C138.18 14.4612 138.393 13.474 138.82 12.6264C139.25 11.7789 139.857 11.1207 140.638 10.652C141.419 10.1832 142.342 9.94886 143.408 9.94886C144.473 9.94886 145.396 10.1832 146.178 10.652C146.959 11.1207 147.563 11.7789 147.989 12.6264C148.42 13.474 148.635 14.4612 148.635 15.5881C148.635 16.715 148.42 17.6998 147.989 18.5426C147.563 19.3854 146.959 20.0412 146.178 20.5099C145.396 20.9787 144.473 21.2131 143.408 21.2131ZM143.422 19.1534C144 19.1534 144.482 18.9948 144.871 18.6776C145.259 18.3556 145.548 17.9247 145.737 17.3849C145.931 16.8452 146.028 16.2438 146.028 15.581C146.028 14.9134 145.931 14.3097 145.737 13.7699C145.548 13.2254 145.259 12.7921 144.871 12.4702C144.482 12.1482 144 11.9872 143.422 11.9872C142.83 11.9872 142.338 12.1482 141.945 12.4702C141.556 12.7921 141.265 13.2254 141.071 13.7699C140.882 14.3097 140.787 14.9134 140.787 15.581C140.787 16.2438 140.882 16.8452 141.071 17.3849C141.265 17.9247 141.556 18.3556 141.945 18.6776C142.338 18.9948 142.83 19.1534 143.422 19.1534ZM155.576 21.2131C154.487 21.2131 153.551 20.974 152.77 20.4957C151.994 20.0175 151.395 19.357 150.973 18.5142C150.557 17.6667 150.348 16.6913 150.348 15.5881C150.348 14.4801 150.561 13.5024 150.988 12.6548C151.414 11.8026 152.015 11.1397 152.792 10.6662C153.573 10.188 154.496 9.94886 155.561 9.94886C156.447 9.94886 157.23 10.1122 157.912 10.4389C158.599 10.7609 159.146 11.2178 159.553 11.8097C159.96 12.3968 160.192 13.0833 160.249 13.8693H157.792C157.692 13.3437 157.455 12.9058 157.081 12.5554C156.712 12.2003 156.217 12.0227 155.597 12.0227C155.071 12.0227 154.61 12.1648 154.212 12.4489C153.814 12.7282 153.504 13.1307 153.282 13.6562C153.064 14.1818 152.955 14.8116 152.955 15.5455C152.955 16.2888 153.064 16.928 153.282 17.4631C153.499 17.9934 153.805 18.4029 154.198 18.6918C154.596 18.9759 155.062 19.1179 155.597 19.1179C155.976 19.1179 156.314 19.0469 156.613 18.9048C156.916 18.758 157.169 18.5473 157.373 18.2727C157.576 17.9981 157.716 17.6643 157.792 17.2713H160.249C160.187 18.0431 159.96 18.7273 159.567 19.3239C159.174 19.9157 158.639 20.3797 157.962 20.7159C157.285 21.0473 156.489 21.2131 155.576 21.2131ZM170.982 12.9744L168.638 13.2301C168.572 12.9934 168.456 12.7708 168.29 12.5625C168.129 12.3542 167.912 12.1861 167.637 12.0582C167.362 11.9304 167.026 11.8665 166.629 11.8665C166.094 11.8665 165.644 11.9825 165.279 12.2145C164.919 12.4465 164.742 12.7472 164.746 13.1165C164.742 13.4337 164.858 13.6918 165.094 13.8906C165.336 14.0895 165.734 14.2528 166.288 14.3807L168.148 14.7784C169.181 15.0009 169.948 15.3537 170.45 15.8366C170.956 16.3196 171.212 16.9517 171.217 17.733C171.212 18.4195 171.011 19.0256 170.613 19.5511C170.22 20.072 169.673 20.4792 168.972 20.7727C168.272 21.0663 167.467 21.2131 166.558 21.2131C165.222 21.2131 164.147 20.9337 163.333 20.375C162.519 19.8116 162.033 19.0279 161.877 18.0241L164.384 17.7827C164.498 18.2751 164.739 18.6468 165.109 18.8977C165.478 19.1487 165.959 19.2741 166.55 19.2741C167.161 19.2741 167.651 19.1487 168.021 18.8977C168.395 18.6468 168.582 18.3366 168.582 17.9673C168.582 17.6548 168.461 17.3968 168.219 17.1932C167.983 16.9896 167.613 16.8333 167.112 16.7244L165.251 16.3338C164.204 16.116 163.43 15.7491 162.928 15.233C162.426 14.7121 162.178 14.054 162.183 13.2585C162.178 12.5862 162.36 12.0038 162.729 11.5114C163.103 11.0142 163.622 10.6307 164.285 10.3608C164.952 10.0862 165.722 9.94886 166.593 9.94886C167.871 9.94886 168.878 10.2211 169.612 10.7656C170.35 11.3101 170.807 12.0464 170.982 12.9744Z" fill="white"/>
<g clip-path="url(#clip0_4_100)">
<path d="M11.0415 20.621C10.4722 21.5461 9.34445 22.9366 7.4613 23.38L7.89377 21.9567C7.89377 21.9567 6.22408 23.068 4.62012 23.38C4.93216 21.7706 6.04347 20.1064 6.04347 20.1064L4.62012 20.5388C5.06351 18.6557 6.454 17.528 7.37917 16.9586L11.3212 16.1309L11.0415 20.621Z" fill="#F59E0B"/>
<path d="M17.2693 24.4073C15.2124 26.4642 11.9192 26.5293 9.78433 24.6036C10.627 24.5143 11.5355 23.844 11.6626 22.6644C11.7156 22.1745 11.6332 21.5963 11.3552 20.9354L7.06512 16.6454C6.40418 16.3674 5.82603 16.285 5.33609 16.3379C4.15653 16.465 3.48622 17.3734 3.39692 18.2162C1.47125 16.0814 1.53632 12.7881 3.59323 10.7312C4.80954 9.51485 6.45921 8.99525 8.04565 9.17248C8.77305 9.25386 9.48696 9.48096 10.1399 9.85554L18.1449 17.8605C18.5195 18.5135 18.747 19.2277 18.828 19.9548C19.0053 21.5412 18.4856 23.191 17.2693 24.4073Z" fill="#94A3B8"/>
<path d="M18.8269 19.9543C16.6962 21.3773 14.2595 22.2746 11.6615 22.6638C11.7144 22.1739 11.632 21.5957 11.354 20.9348L7.06399 16.6447C6.40305 16.3667 5.8249 16.2843 5.33496 16.3373C5.72412 13.7392 6.62154 11.3025 8.04447 9.17188C8.77188 9.25325 9.48578 9.48036 10.1387 9.85494L18.1437 17.8599C18.5184 18.513 18.7459 19.2272 18.8269 19.9543Z" fill="black"/>
<path d="M11.3549 20.935C14.6941 20.168 17.8653 18.4845 20.4667 15.8832C24.2872 12.0626 26.1289 7.01293 25.9929 2.00701C20.987 1.87103 15.9373 3.71265 12.1167 7.53319C9.51537 10.1346 7.83186 13.3057 7.06494 16.6449L11.3549 20.935Z" fill="#CBD5E1"/>
<path d="M14.2864 9.7028C11.6853 12.304 9.61489 15.089 8.17977 17.7594L7.06494 16.6446C7.83144 13.3056 9.51547 10.1342 12.1166 7.53306C15.9371 3.71247 20.9868 1.87094 25.9928 2.00702C22.3229 3.20702 18.107 5.88231 14.2864 9.7028Z" fill="#CBD5E1"/>
<path d="M24.8765 8.9534C23.7579 8.2814 22.6486 7.41928 21.6147 6.3855C21.1155 5.88628 20.6567 5.37 20.2399 4.84379C19.7929 4.27908 19.3937 3.70266 19.0454 3.12376C21.2727 2.31877 23.6212 1.94659 25.9602 2.00617C25.9713 2.00687 25.9824 2.00687 25.9931 2.0072L25.9928 2.00752C26.0564 4.35699 25.685 6.71578 24.8765 8.9534Z" fill="#94A3B8"/>
<path d="M25.2592 18.1234C25.2588 18.123 25.2592 18.1225 25.2588 18.1221Z" fill="#CBD5E1"/>
<path d="M25.9935 2.0072L25.9932 2.00752C24.1717 2.6027 22.2156 3.56171 20.2404 4.84379C19.7934 4.27908 19.3942 3.70266 19.0459 3.12376C21.2731 2.31877 23.6216 1.94659 25.9607 2.00617C25.9717 2.00687 25.9828 2.00687 25.9935 2.0072Z" fill="#94A3B8"/>
<path d="M17.603 13.9257C19.5514 13.9257 21.1308 12.3463 21.1308 10.3979C21.1308 8.44957 19.5514 6.87012 17.603 6.87012C15.6546 6.87012 14.0752 8.44957 14.0752 10.3979C14.0752 12.3463 15.6546 13.9257 17.603 13.9257Z" fill="black"/>
<path d="M17.6013 12.7738C18.9133 12.7738 19.9769 11.7102 19.9769 10.3981C19.9769 9.08608 18.9133 8.02246 17.6013 8.02246C16.2892 8.02246 15.2256 9.08608 15.2256 10.3981C15.2256 11.7102 16.2892 12.7738 17.6013 12.7738Z" fill="white"/>
</g>
<defs>
<clipPath id="clip0_4_100">
<rect width="24" height="24" fill="white" transform="translate(2 2)"/>
</clipPath>
</defs>
</svg>
