<svg width="171" height="28" viewBox="0 0 171 28" fill="none" xmlns="http://www.w3.org/2000/svg">
<g clip-path="url(#clip0_4_99)">
<path d="M9.04102 20.621C8.47168 21.5461 7.34396 22.9366 5.46081 23.38L5.89328 21.9567C5.89328 21.9567 4.22359 23.068 2.61963 23.38C2.93168 21.7706 4.04299 20.1064 4.04299 20.1064L2.61963 20.5388C3.06302 18.6557 4.45352 17.528 5.37869 16.9586L9.32073 16.1309L9.04102 20.621Z" fill="#F59E0B"/>
<path d="M15.2693 24.4063C13.2124 26.4632 9.91916 26.5283 7.78433 24.6026C8.62705 24.5133 9.53553 23.843 9.66261 22.6635C9.71558 22.1735 9.63317 21.5954 9.35516 20.9344L5.06512 16.6444C4.40418 16.3664 3.82603 16.284 3.33609 16.3369C2.15653 16.464 1.48622 17.3725 1.39692 18.2152C-0.528746 16.0804 -0.463684 12.7872 1.59323 10.7302C2.80954 9.51388 4.45921 8.99427 6.04565 9.1715C6.77305 9.25288 7.48696 9.47999 8.13992 9.85457L16.1449 17.8595C16.5195 18.5125 16.747 19.2267 16.828 19.9538C17.0053 21.5402 16.4856 23.19 15.2693 24.4063Z" fill="black"/>
<path d="M16.8279 19.9543C14.6972 21.3773 12.2605 22.2746 9.66246 22.6638C9.71543 22.1739 9.63302 21.5957 9.355 20.9348L5.06497 16.6447C4.40403 16.3667 3.82587 16.2843 3.33594 16.3373C3.72509 13.7392 4.62251 11.3025 6.04545 9.17188C6.77285 9.25325 7.48676 9.48036 8.13973 9.85494L16.1447 17.8599C16.5194 18.513 16.7469 19.2272 16.8279 19.9543Z" fill="black"/>
<path d="M9.35493 20.935C12.6941 20.168 15.8653 18.4845 18.4667 15.8832C22.2872 12.0626 24.1289 7.01293 23.9929 2.00701C18.987 1.87103 13.9373 3.71265 10.1167 7.53319C7.51537 10.1346 5.83186 13.3057 5.06494 16.6449L9.35493 20.935Z" fill="#CBD5E1"/>
<path d="M12.2864 9.7028C9.68526 12.304 7.61489 15.089 6.17977 17.7594L5.06494 16.6446C5.83144 13.3056 7.51547 10.1342 10.1166 7.53306C13.9371 3.71247 18.9868 1.87094 23.9928 2.00702C20.3229 3.20702 16.107 5.88231 12.2864 9.7028Z" fill="#94A3B8"/>
<path d="M22.8765 8.9534C21.7579 8.2814 20.6486 7.41928 19.6147 6.3855C19.1155 5.88628 18.6567 5.37 18.2399 4.84379C17.7929 4.27908 17.3937 3.70266 17.0454 3.12376C19.2727 2.31877 21.6212 1.94659 23.9602 2.00617C23.9713 2.00687 23.9824 2.00687 23.9931 2.0072L23.9928 2.00752C24.0564 4.35699 23.685 6.71578 22.8765 8.9534Z" fill="black"/>
<path d="M23.2598 18.1237C23.2593 18.1232 23.2598 18.1226 23.2593 18.1221Z" fill="#3F3F46"/>
<path d="M23.993 2.0072L23.9927 2.00752C22.1712 2.6027 20.2151 3.56171 18.2399 4.84379C17.7929 4.27908 17.3937 3.70266 17.0454 3.12376C19.2726 2.31877 21.6211 1.94659 23.9602 2.00617C23.9712 2.00687 23.9823 2.00687 23.993 2.0072Z" fill="black"/>
<path d="M15.6025 13.9257C17.5509 13.9257 19.1303 12.3463 19.1303 10.3979C19.1303 8.44957 17.5509 6.87012 15.6025 6.87012C13.6542 6.87012 12.0747 8.44957 12.0747 10.3979C12.0747 12.3463 13.6542 13.9257 15.6025 13.9257Z" fill="black"/>
<path d="M15.6027 12.7738C16.9148 12.7738 17.9784 11.7102 17.9784 10.3981C17.9784 9.08608 16.9148 8.02246 15.6027 8.02246C14.2907 8.02246 13.2271 9.08608 13.2271 10.3981C13.2271 11.7102 14.2907 12.7738 15.6027 12.7738Z" fill="white"/>
</g>
<path d="M35.4347 21V6.45455H40.8892C42.0066 6.45455 42.9441 6.64867 43.7017 7.03693C44.464 7.42519 45.0393 7.9697 45.4276 8.67045C45.8205 9.36648 46.017 10.1785 46.017 11.1065C46.017 12.0393 45.8182 12.849 45.4205 13.5355C45.0275 14.2173 44.4474 14.7453 43.6804 15.1193C42.9134 15.4886 41.9711 15.6733 40.8537 15.6733H36.9688V13.4858H40.4986C41.152 13.4858 41.687 13.3958 42.1037 13.2159C42.5204 13.0312 42.8281 12.7637 43.027 12.4134C43.2306 12.0582 43.3324 11.6226 43.3324 11.1065C43.3324 10.5904 43.2306 10.1501 43.027 9.78551C42.8234 9.41619 42.5133 9.13684 42.0966 8.94744C41.6799 8.75331 41.1425 8.65625 40.4844 8.65625H38.0696V21H35.4347ZM42.9489 14.4091L46.5497 21H43.6094L40.0724 14.4091H42.9489ZM53.0021 21.2131C51.9084 21.2131 50.9638 20.9858 50.1683 20.5312C49.3776 20.072 48.7692 19.4233 48.343 18.5852C47.9169 17.7424 47.7038 16.7505 47.7038 15.6094C47.7038 14.4872 47.9169 13.5024 48.343 12.6548C48.7739 11.8026 49.3752 11.1397 50.147 10.6662C50.9188 10.188 51.8255 9.94886 52.8672 9.94886C53.5395 9.94886 54.174 10.0578 54.7706 10.2756C55.3719 10.4886 55.9022 10.8201 56.3615 11.2699C56.8255 11.7197 57.1901 12.2926 57.4553 12.9886C57.7204 13.6799 57.853 14.5038 57.853 15.4602V16.2486H48.9112V14.5156H55.3885C55.3838 14.0232 55.2772 13.5852 55.0689 13.2017C54.8606 12.8134 54.5694 12.508 54.1953 12.2855C53.826 12.063 53.3951 11.9517 52.9027 11.9517C52.3771 11.9517 51.9155 12.0795 51.5178 12.3352C51.12 12.5862 50.8099 12.9176 50.5874 13.3295C50.3696 13.7367 50.2583 14.1842 50.2536 14.6719V16.1847C50.2536 16.8191 50.3696 17.3636 50.6016 17.8182C50.8336 18.268 51.1579 18.6136 51.5746 18.8551C51.9912 19.0919 52.4789 19.2102 53.0376 19.2102C53.4117 19.2102 53.7502 19.1581 54.0533 19.054C54.3563 18.9451 54.6191 18.7865 54.8416 18.5781C55.0642 18.3698 55.2322 18.1117 55.3459 17.804L57.7464 18.0739C57.5949 18.7083 57.3061 19.2623 56.88 19.7358C56.4586 20.2045 55.9188 20.5691 55.2607 20.8295C54.6025 21.0852 53.8497 21.2131 53.0021 21.2131ZM62.5991 6.45455V21H60.0281V6.45455H62.5991ZM70.0724 21.2131C68.9787 21.2131 68.0341 20.9858 67.2386 20.5312C66.4479 20.072 65.8395 19.4233 65.4134 18.5852C64.9872 17.7424 64.7741 16.7505 64.7741 15.6094C64.7741 14.4872 64.9872 13.5024 65.4134 12.6548C65.8442 11.8026 66.4455 11.1397 67.2173 10.6662C67.9891 10.188 68.8958 9.94886 69.9375 9.94886C70.6098 9.94886 71.2443 10.0578 71.8409 10.2756C72.4422 10.4886 72.9725 10.8201 73.4318 11.2699C73.8958 11.7197 74.2604 12.2926 74.5256 12.9886C74.7907 13.6799 74.9233 14.5038 74.9233 15.4602V16.2486H65.9815V14.5156H72.4588C72.4541 14.0232 72.3475 13.5852 72.1392 13.2017C71.9309 12.8134 71.6397 12.508 71.2656 12.2855C70.8963 12.063 70.4654 11.9517 69.973 11.9517C69.4474 11.9517 68.9858 12.0795 68.5881 12.3352C68.1903 12.5862 67.8802 12.9176 67.6577 13.3295C67.4399 13.7367 67.3286 14.1842 67.3239 14.6719V16.1847C67.3239 16.8191 67.4399 17.3636 67.6719 17.8182C67.9039 18.268 68.2282 18.6136 68.6449 18.8551C69.0616 19.0919 69.5492 19.2102 70.108 19.2102C70.482 19.2102 70.8205 19.1581 71.1236 19.054C71.4266 18.9451 71.6894 18.7865 71.9119 18.5781C72.1345 18.3698 72.3026 18.1117 72.4162 17.804L74.8168 18.0739C74.6652 18.7083 74.3764 19.2623 73.9503 19.7358C73.5289 20.2045 72.9891 20.5691 72.331 20.8295C71.6728 21.0852 70.92 21.2131 70.0724 21.2131ZM80.2376 21.2202C79.5463 21.2202 78.9237 21.0971 78.3697 20.8509C77.8204 20.5999 77.3848 20.2306 77.0629 19.7429C76.7456 19.2552 76.587 18.6539 76.587 17.9389C76.587 17.3234 76.7006 16.8144 76.9279 16.4119C77.1552 16.0095 77.4653 15.6875 77.8583 15.446C78.2513 15.2045 78.694 15.0223 79.1864 14.8991C79.6836 14.7713 80.1973 14.679 80.7276 14.6222C81.3668 14.5559 81.8853 14.4967 82.283 14.4446C82.6808 14.3878 82.9696 14.3026 83.1495 14.1889C83.3342 14.0705 83.4265 13.8883 83.4265 13.642V13.5994C83.4265 13.0644 83.2679 12.6501 82.9506 12.3565C82.6334 12.063 82.1765 11.9162 81.5799 11.9162C80.9502 11.9162 80.4506 12.0535 80.0813 12.3281C79.7167 12.6027 79.4705 12.9271 79.3427 13.3011L76.9421 12.9602C77.1315 12.2973 77.444 11.7434 77.8796 11.2983C78.3152 10.8485 78.8479 10.5123 79.4776 10.2898C80.1074 10.0625 80.8034 9.94886 81.5657 9.94886C82.0913 9.94886 82.6145 10.0104 83.1353 10.1335C83.6561 10.2566 84.132 10.4602 84.5629 10.7443C84.9937 11.0237 85.3394 11.4048 85.5998 11.8878C85.8649 12.3707 85.9975 12.9744 85.9975 13.6989V21H83.5259V19.5014H83.4407C83.2844 19.8045 83.0643 20.0885 82.7802 20.3537C82.5008 20.6141 82.1481 20.8248 81.7219 20.9858C81.3005 21.142 80.8058 21.2202 80.2376 21.2202ZM80.9052 19.331C81.4213 19.331 81.8687 19.2292 82.2475 19.0256C82.6263 18.8172 82.9175 18.5426 83.1211 18.2017C83.3294 17.8608 83.4336 17.4891 83.4336 17.0866V15.8011C83.3531 15.8674 83.2158 15.929 83.0217 15.9858C82.8323 16.0426 82.6192 16.0923 82.3825 16.1349C82.1457 16.1776 81.9113 16.2154 81.6793 16.2486C81.4473 16.2817 81.2461 16.3101 81.0756 16.3338C80.6921 16.3859 80.3488 16.4711 80.0458 16.5895C79.7428 16.7079 79.5037 16.8736 79.3285 17.0866C79.1533 17.295 79.0657 17.5649 79.0657 17.8963C79.0657 18.3698 79.2385 18.7273 79.5842 18.9688C79.9298 19.2102 80.3701 19.331 80.9052 19.331ZM88.4407 21V19.3665L94.0657 12.3139V12.2216H88.6254V10.0909H97.212V11.8452L91.8569 18.777V18.8693H97.3967V21H88.4407ZM99.8132 21V10.0909H102.384V21H99.8132ZM101.106 8.54261C100.699 8.54261 100.348 8.40767 100.055 8.13778C99.7611 7.86316 99.6143 7.53409 99.6143 7.15057C99.6143 6.76231 99.7611 6.43324 100.055 6.16335C100.348 5.88873 100.699 5.75142 101.106 5.75142C101.518 5.75142 101.868 5.88873 102.157 6.16335C102.451 6.43324 102.597 6.76231 102.597 7.15057C102.597 7.53409 102.451 7.86316 102.157 8.13778C101.868 8.40767 101.518 8.54261 101.106 8.54261ZM109.787 21.2131C108.721 21.2131 107.798 20.9787 107.017 20.5099C106.235 20.0412 105.629 19.3854 105.199 18.5426C104.772 17.6998 104.559 16.715 104.559 15.5881C104.559 14.4612 104.772 13.474 105.199 12.6264C105.629 11.7789 106.235 11.1207 107.017 10.652C107.798 10.1832 108.721 9.94886 109.787 9.94886C110.852 9.94886 111.775 10.1832 112.556 10.652C113.338 11.1207 113.941 11.7789 114.368 12.6264C114.798 13.474 115.014 14.4612 115.014 15.5881C115.014 16.715 114.798 17.6998 114.368 18.5426C113.941 19.3854 113.338 20.0412 112.556 20.5099C111.775 20.9787 110.852 21.2131 109.787 21.2131ZM109.801 19.1534C110.378 19.1534 110.861 18.9948 111.25 18.6776C111.638 18.3556 111.927 17.9247 112.116 17.3849C112.31 16.8452 112.407 16.2438 112.407 15.581C112.407 14.9134 112.31 14.3097 112.116 13.7699C111.927 13.2254 111.638 12.7921 111.25 12.4702C110.861 12.1482 110.378 11.9872 109.801 11.9872C109.209 11.9872 108.717 12.1482 108.324 12.4702C107.935 12.7921 107.644 13.2254 107.45 13.7699C107.261 14.3097 107.166 14.9134 107.166 15.581C107.166 16.2438 107.261 16.8452 107.45 17.3849C107.644 17.9247 107.935 18.3556 108.324 18.6776C108.717 18.9948 109.209 19.1534 109.801 19.1534ZM127.2 21H122.271V6.45455H127.299C128.743 6.45455 129.984 6.74574 131.021 7.32812C132.062 7.90578 132.862 8.73674 133.421 9.82102C133.98 10.9053 134.259 12.2027 134.259 13.7131C134.259 15.2282 133.978 16.5303 133.414 17.6193C132.855 18.7083 132.048 19.544 130.992 20.1264C129.941 20.7088 128.677 21 127.2 21ZM124.906 18.7202H127.072C128.085 18.7202 128.93 18.5355 129.607 18.1662C130.284 17.7921 130.793 17.2358 131.134 16.4972C131.475 15.7538 131.646 14.8258 131.646 13.7131C131.646 12.6004 131.475 11.6771 131.134 10.9432C130.793 10.2045 130.289 9.65294 129.621 9.28835C128.959 8.91903 128.135 8.73438 127.15 8.73438H124.906V18.7202ZM141.408 21.2131C140.342 21.2131 139.419 20.9787 138.638 20.5099C137.857 20.0412 137.25 19.3854 136.82 18.5426C136.393 17.6998 136.18 16.715 136.18 15.5881C136.18 14.4612 136.393 13.474 136.82 12.6264C137.25 11.7789 137.857 11.1207 138.638 10.652C139.419 10.1832 140.342 9.94886 141.408 9.94886C142.473 9.94886 143.396 10.1832 144.178 10.652C144.959 11.1207 145.563 11.7789 145.989 12.6264C146.42 13.474 146.635 14.4612 146.635 15.5881C146.635 16.715 146.42 17.6998 145.989 18.5426C145.563 19.3854 144.959 20.0412 144.178 20.5099C143.396 20.9787 142.473 21.2131 141.408 21.2131ZM141.422 19.1534C142 19.1534 142.482 18.9948 142.871 18.6776C143.259 18.3556 143.548 17.9247 143.737 17.3849C143.931 16.8452 144.028 16.2438 144.028 15.581C144.028 14.9134 143.931 14.3097 143.737 13.7699C143.548 13.2254 143.259 12.7921 142.871 12.4702C142.482 12.1482 142 11.9872 141.422 11.9872C140.83 11.9872 140.338 12.1482 139.945 12.4702C139.556 12.7921 139.265 13.2254 139.071 13.7699C138.882 14.3097 138.787 14.9134 138.787 15.581C138.787 16.2438 138.882 16.8452 139.071 17.3849C139.265 17.9247 139.556 18.3556 139.945 18.6776C140.338 18.9948 140.83 19.1534 141.422 19.1534ZM153.576 21.2131C152.487 21.2131 151.551 20.974 150.77 20.4957C149.994 20.0175 149.395 19.357 148.973 18.5142C148.557 17.6667 148.348 16.6913 148.348 15.5881C148.348 14.4801 148.561 13.5024 148.988 12.6548C149.414 11.8026 150.015 11.1397 150.792 10.6662C151.573 10.188 152.496 9.94886 153.561 9.94886C154.447 9.94886 155.23 10.1122 155.912 10.4389C156.599 10.7609 157.146 11.2178 157.553 11.8097C157.96 12.3968 158.192 13.0833 158.249 13.8693H155.792C155.692 13.3437 155.455 12.9058 155.081 12.5554C154.712 12.2003 154.217 12.0227 153.597 12.0227C153.071 12.0227 152.61 12.1648 152.212 12.4489C151.814 12.7282 151.504 13.1307 151.282 13.6562C151.064 14.1818 150.955 14.8116 150.955 15.5455C150.955 16.2888 151.064 16.928 151.282 17.4631C151.499 17.9934 151.805 18.4029 152.198 18.6918C152.596 18.9759 153.062 19.1179 153.597 19.1179C153.976 19.1179 154.314 19.0469 154.613 18.9048C154.916 18.758 155.169 18.5473 155.373 18.2727C155.576 17.9981 155.716 17.6643 155.792 17.2713H158.249C158.187 18.0431 157.96 18.7273 157.567 19.3239C157.174 19.9157 156.639 20.3797 155.962 20.7159C155.285 21.0473 154.489 21.2131 153.576 21.2131ZM168.982 12.9744L166.638 13.2301C166.572 12.9934 166.456 12.7708 166.29 12.5625C166.129 12.3542 165.912 12.1861 165.637 12.0582C165.362 11.9304 165.026 11.8665 164.629 11.8665C164.094 11.8665 163.644 11.9825 163.279 12.2145C162.919 12.4465 162.742 12.7472 162.746 13.1165C162.742 13.4337 162.858 13.6918 163.094 13.8906C163.336 14.0895 163.734 14.2528 164.288 14.3807L166.148 14.7784C167.181 15.0009 167.948 15.3537 168.45 15.8366C168.956 16.3196 169.212 16.9517 169.217 17.733C169.212 18.4195 169.011 19.0256 168.613 19.5511C168.22 20.072 167.673 20.4792 166.972 20.7727C166.272 21.0663 165.467 21.2131 164.558 21.2131C163.222 21.2131 162.147 20.9337 161.333 20.375C160.519 19.8116 160.033 19.0279 159.877 18.0241L162.384 17.7827C162.498 18.2751 162.739 18.6468 163.109 18.8977C163.478 19.1487 163.959 19.2741 164.55 19.2741C165.161 19.2741 165.651 19.1487 166.021 18.8977C166.395 18.6468 166.582 18.3366 166.582 17.9673C166.582 17.6548 166.461 17.3968 166.219 17.1932C165.983 16.9896 165.613 16.8333 165.112 16.7244L163.251 16.3338C162.204 16.116 161.43 15.7491 160.928 15.233C160.426 14.7121 160.178 14.054 160.183 13.2585C160.178 12.5862 160.36 12.0038 160.729 11.5114C161.103 11.0142 161.622 10.6307 162.285 10.3608C162.952 10.0862 163.722 9.94886 164.593 9.94886C165.871 9.94886 166.878 10.2211 167.612 10.7656C168.35 11.3101 168.807 12.0464 168.982 12.9744Z" fill="#18181B"/>
<defs>
<clipPath id="clip0_4_99">
<rect width="24" height="24" fill="white" transform="translate(0 2)"/>
</clipPath>
</defs>
</svg>
